# xmcd
#
# Track frame offsets: 
#        150
#        20441
#        42109
#        67816
#        90015
#        104183
#        123089
#        147338
#        168382
#        198634
#
# Disc length: 2823 seconds
#
# Revision: 1
# Processed by: cddbd v1.5.2PL0 Copyright (c) Steve Scherf et al.
# Submitted via: ExactAudioCopy v0.99pb4
#
DISCID=7f0b050a
DTITLE=Homesick James - My Home Ain't Here
DYEAR=2004
DGENRE=Blues
TTITLE0=Please Set A Date
TTITLE1=Crossroads
TTITLE2=Come On Back
TTITLE3=Little and Low
TTITLE4=Gotta Move
TTITLE5=Evil Minded People
TTITLE6=You Don't Have To Go
TTITLE7=Lay It On Me
TTITLE8=Sweet and Kind Lovin' Woman
TTITLE9=Got No Time
EXTD=YEAR: 2004
EXTT0=
EXTT1=
EXTT2=
EXTT3=
EXTT4=
EXTT5=
EXTT6=
EXTT7=
EXTT8=
EXTT9=
PLAYORDER=
